<svg width="40" height="40" viewBox="0 0 40 40" fill="none" xmlns="http://www.w3.org/2000/svg">
<path d="M19.9223 3.33325C10.7757 3.33325 3.33398 10.8099 3.33398 19.9999C3.33398 29.1899 10.8107 36.6666 20.0007 36.6666C29.1907 36.6666 36.6673 29.1899 36.6673 19.9999C36.6673 10.8099 29.1557 3.33325 19.9223 3.33325ZM20.0007 33.3333C12.649 33.3333 6.66732 27.3516 6.66732 19.9999C6.66732 12.6483 12.6123 6.66659 19.9223 6.66659C27.319 6.66659 33.334 12.6483 33.334 19.9999C33.334 27.3516 27.3523 33.3333 20.0007 33.3333Z" fill="white"/>
<path d="M18.334 11.6666H21.6673V23.3333H18.334V11.6666ZM18.334 24.9999H21.6673V28.3333H18.334V24.9999Z" fill="white"/>
</svg>
