<svg width="40" height="41" viewBox="0 0 40 41" fill="none" xmlns="http://www.w3.org/2000/svg">
<path fill-rule="evenodd" clip-rule="evenodd" d="M26.6667 6.29297H13.3333C8.73097 6.29297 5 10.0239 5 14.6263V27.9596C5 32.562 8.73097 36.293 13.3333 36.293H26.6667C31.269 36.293 35 32.562 35 27.9596V14.6263C35 10.0239 31.269 6.29297 26.6667 6.29297ZM32.0833 27.9596C32.0742 30.9473 29.6543 33.3671 26.6667 33.3763H13.3333C10.3456 33.3671 7.92582 30.9473 7.91667 27.9596V14.6263C7.92582 11.6386 10.3456 9.21879 13.3333 9.20964H26.6667C29.6543 9.21879 32.0742 11.6386 32.0833 14.6263V27.9596ZM27.9167 15.043C28.8372 15.043 29.5833 14.2968 29.5833 13.3763C29.5833 12.4558 28.8372 11.7096 27.9167 11.7096C26.9962 11.7096 26.25 12.4558 26.25 13.3763C26.25 14.2968 26.9962 15.043 27.9167 15.043ZM20 13.793C15.8579 13.793 12.5 17.1508 12.5 21.293C12.5 25.4351 15.8579 28.793 20 28.793C24.1422 28.793 27.5 25.4351 27.5 21.293C27.5045 19.3025 26.7157 17.3923 25.3082 15.9848C23.9007 14.5773 21.9905 13.7885 20 13.793ZM15.4167 21.293C15.4167 23.8243 17.4687 25.8763 20 25.8763C22.5313 25.8763 24.5833 23.8243 24.5833 21.293C24.5833 18.7616 22.5313 16.7096 20 16.7096C17.4687 16.7096 15.4167 18.7616 15.4167 21.293Z" fill="white"/>
</svg>
