<svg width="20" height="20" viewBox="0 0 20 20" fill="none" xmlns="http://www.w3.org/2000/svg">
<path d="M9.07082 1.31791C9.41456 0.501451 10.5853 0.501452 10.9291 1.31791L12.9578 6.1368C13.1028 6.481 13.4305 6.71618 13.8066 6.74597L19.0726 7.16304C19.9648 7.23371 20.3266 8.3337 19.6468 8.90897L15.6347 12.3042C15.3482 12.5468 15.2229 12.9273 15.3105 13.2899L16.5363 18.3666C16.7439 19.2267 15.7968 19.9066 15.0329 19.4457L10.5245 16.7251C10.2024 16.5308 9.79744 16.5308 9.47542 16.7251L4.96693 19.4457C4.20305 19.9066 3.25589 19.2267 3.46357 18.3666L4.68936 13.2899C4.77692 12.9273 4.65176 12.5468 4.36519 12.3042L0.353001 8.90897C-0.326779 8.3337 0.0350068 7.23371 0.92723 7.16304L6.19329 6.74597C6.56944 6.71618 6.89709 6.481 7.04201 6.1368L9.07082 1.31791Z" fill="white"/>
</svg>
