<svg width="20" height="20" viewBox="0 0 20 20" fill="none" xmlns="http://www.w3.org/2000/svg">
<path d="M9.071 1.31791C9.41474 0.501451 10.5855 0.501452 10.9292 1.31791L12.958 6.1368C13.103 6.481 13.4307 6.71618 13.8068 6.74597L19.0728 7.16304C19.965 7.23371 20.3268 8.3337 19.647 8.90897L15.6349 12.3042C15.3483 12.5468 15.2231 12.9273 15.3107 13.2899L16.5365 18.3666C16.7441 19.2267 15.797 19.9066 15.0331 19.4457L10.5247 16.7251C10.2026 16.5308 9.79762 16.5308 9.4756 16.7251L4.96711 19.4457C4.20323 19.9066 3.25608 19.2267 3.46376 18.3666L4.68954 13.2899C4.7771 12.9273 4.65194 12.5468 4.36538 12.3042L0.353184 8.90897C-0.326596 8.3337 0.0351899 7.23371 0.927413 7.16304L6.19348 6.74597C6.56962 6.71618 6.89728 6.481 7.04219 6.1368L9.071 1.31791Z" fill="#764191"/>
</svg>
